<mxfile host="app.diagrams.net" modified="2024-06-02T11:06:22.756Z" agent="Mozilla/5.0 (Windows NT 10.0; Win64; x64) AppleWebKit/537.36 (KHTML, like Gecko) Chrome/125.0.0.0 Safari/537.36" version="24.4.8" etag="B18bZG99_qwYuq4rjmNL" type="github">
  <diagram name="PÃ¡gina-1" id="cS7lhPLN6OD9LZHCVQ6Z">
    <mxGraphModel>
      <root>
        <mxCell id="0" />
        <mxCell id="1" parent="0" />
      </root>
    </mxGraphModel>
  </diagram>
</mxfile>
